# xmcd
#
# Track frame offsets:
#   150
#   13295
#   24940
#   36212
#   48076
#   61104
#   76022
#   80173
#   95706
#   108142
#   118528
#   132198
#   143714
#   154996
#   170498
#   184536
#   203189
#   216860
#   245264
#
# Disc length: 3390 seconds
#
# Revision: 0
# Processed by: cddbd v1.5.2PL0 Copyright (c) Steve Scherf et al.
# Submitted via: GXTranscoder 2.0.1939
#
DISCID=f60d3c13
DTITLE=Majoe - Breiter als der Türsteher
DYEAR=1900
DGENRE=Hip Hop
TTITLE0=nur der tod kann mich stoppen
TTITLE1=Stählerne Faust
TTITLE2=Prototyp Banger
TTITLE3=Wenn wir kommen
TTITLE4=Stresserblick
TTITLE5=Badt
TTITLE6=Badt Skit
TTITLE7=Zahnpastalächeln
TTITLE8=Ghettosuperstar
TTITLE9=Bastard
TTITLE10=Muisterschwiegersohn
TTITLE11=Gladiator
TTITLE12=Legende
TTITLE13=Hantelbank
TTITLE14=Immer für dich da
TTITLE15=Muskulöse Übernahme
TTITLE16=Schwerter aus Gold
TTITLE17=Manchmal
TTITLE18=video
EXTD=
EXTT0=
EXTT1=
EXTT2=
EXTT3=
EXTT4=
EXTT5=
EXTT6=
EXTT7=
EXTT8=
EXTT9=
EXTT10=
EXTT11=
EXTT12=
EXTT13=
EXTT14=
EXTT15=
EXTT16=
EXTT17=
EXTT18=
PLAYORDER=
